v 0.0899742692709 -0.7579231262207 1.0276255607605
v 0.04730227589607 -0.76379364728928 1.0276255607605
v 0.08740320056677 -0.79711645841599 0.94091635942459
v 0.12360679358244 -0.82720071077347 -0.24192632734776
v 0.12360679358244 -0.82720071077347 -0.54192632436752
v 0.11419779062271 -0.81938207149506 -0.69499969482422
v 0.08740320056677 -0.79711645841599 -0.82476907968521
v 0.04730227589607 -0.76379364728928 -0.91147810220718
v -0 -0.76581645011902 1.0276255607605
v -0 -0.8008542060852 0.94091635942459
v 0.1662507802248 -0.78626924753189 0.94091635942459
v 0.23511409759521 -0.81186044216156 -0.24192632734776
v 0.11419779062271 -0.81938207149506 0.8111469745636
v 0 -0.82426559925079 0.8111469745636
v 0 -0.83248662948608 0.65807366371155
v 0 -0.83248662948608 0.35807365179062
v 0 -0.83248662948608 0.05807366967201
v 0 -0.83248662948608 -0.24192632734776
v 0 -0.83248662948608 -0.54192632436752
v 0 -0.82426559925079 -0.69499969482422
v 0 -0.8008542060852 -0.82476907968521
v 0.21721710264683 -0.80520951747894 0.8111469745636
v 0.23511409759521 -0.81186044216156 -0.54192632436752
v 0 -0.76581645011902 -0.91147810220718
v -0.04730227589607 -0.76379364728928 1.0276255607605
v -0.08740320056677 -0.79711645841599 0.94091635942459
v -0.11419779062271 -0.81938207149506 0.8111469745636
v -0.12360679358244 -0.82720071077347 0.65807366371155
v -0.12360679358244 -0.82720071077347 0.35807365179062
v -0.12360679358244 -0.82720071077347 0.05807366967201
v -0.12360679358244 -0.82720071077347 -0.24192632734776
v -0.12360679358244 -0.82720071077347 -0.54192632436752
v -0.11419779062271 -0.81938207149506 -0.69499969482422
v 0.21721710264683 -0.80520951747894 -0.69499969482422
v -0.08740320056677 -0.79711645841599 -0.82476907968521
v -0.04730227589607 -0.76379364728928 -0.91147810220718
v -0.0899742692709 -0.7579231262207 1.0276255607605
v -0.1662507802248 -0.78626924753189 0.94091635942459
v -0.21721710264683 -0.80520951747894 0.8111469745636
v -0.23511409759521 -0.81186044216156 0.65807366371155
v -0.23511409759521 -0.81186044216156 0.35807365179062
v -0.23511409759521 -0.81186044216156 0.05807366967201
v -0.23511409759521 -0.81186044216156 -0.24192632734776
v -0.23511409759521 -0.81186044216156 -0.54192632436752
v 0.1662507802248 -0.78626924753189 -0.82476907968521
v -0.21721710264683 -0.80520951747894 -0.69499969482422
v -0.1662507802248 -0.78626924753189 -0.82476907968521
v -0.0899742692709 -0.7579231262207 -0.91147810220718
v -0.12383896112442 -0.73984849452972 1.0276255607605
v -0.22882455587387 -0.76937431097031 0.94091635942459
v -0.29897367954254 -0.7831352353096 0.8111469745636
v -0.32360678911209 -0.78796744346619 0.65807366371155
v -0.32360678911209 -0.78796744346619 0.35807365179062
v -0.32360678911209 -0.78796744346619 0.05807366967201
v -0.32360678911209 -0.78796744346619 -0.24192632734776
v 0.0899742692709 -0.7579231262207 -0.91147810220718
v 0.12360679358244 -0.82720071077347 0.65807366371155
v -0.32360678911209 -0.78796744346619 -0.54192632436752
v -0.29897367954254 -0.7831352353096 -0.69499969482422
v -0.22882455587387 -0.76937431097031 -0.82476907968521
v -0.12383896112442 -0.74299401044846 -0.91147810220718
v -0.1455814242363 -0.72219735383987 1.0276255607605
v -0.26899939775467 -0.74808549880981 0.94091635942459
v -0.3514646589756 -0.75532007217407 0.8111469745636
v -0.38042259216309 -0.75786048173904 0.65807366371155
v 0.23511409759521 -0.81186044216156 0.65807366371155
v 0.23511409759521 -0.81186044216156 0.35807365179062
v 0.12360679358244 -0.82720071077347 0.35807365179062
v 0.12360679358244 -0.82720071077347 0.05807366967201
v -0.38042259216309 -0.75786048173904 0.35807365179062
v -0.38042259216309 -0.75786048173904 0.05807366967201
v -0.38042259216309 -0.75786048173904 -0.24192632734776
v -0.38042259216309 -0.75786048173904 -0.54192632436752
v -0.3514646589756 -0.75532007217407 -0.69499969482422
v -0.26899939775467 -0.74808549880981 -0.82476907968521
v -0.1455814242363 -0.72521567344666 -0.91147810220718
v 0.23511409759521 -0.81186044216156 0.05807366967201
v 0.1455814242363 -0.72219735383987 1.0276255607605
v 0.26899939775467 -0.74808549880981 0.94091635942459
v 0.3514646589756 -0.75532007217407 0.8111469745636
v 0.38042259216309 -0.75786048173904 0.65807366371155
v 0.38042259216309 -0.75786048173904 0.35807365179062
v 0.38042259216309 -0.75786048173904 0.05807366967201
v 0.38042259216309 -0.75786048173904 -0.24192632734776
v 0.38042259216309 -0.75786048173904 -0.54192632436752
v 0.3514646589756 -0.75532007217407 -0.69499969482422
v 0.26899939775467 -0.74808549880981 -0.82476907968521
v 0.1455814242363 -0.72521567344666 -0.91147810220718
v 0.12383896112442 -0.73984849452972 1.0276255607605
v 0.22882455587387 -0.76937431097031 0.94091635942459
v 0.29897367954254 -0.7831352353096 0.8111469745636
v 0.32360678911209 -0.78796744346619 0.65807366371155
v 0.32360678911209 -0.78796744346619 0.35807365179062
v 0.32360678911209 -0.78796744346619 0.05807366967201
v 0.32360678911209 -0.78796744346619 -0.24192632734776
v 0.32360678911209 -0.78796744346619 -0.54192632436752
v 0.29897367954254 -0.7831352353096 -0.69499969482422
v 0.22882455587387 -0.76937431097031 -0.82476907968521
v 0.12383896112442 -0.74299401044846 -0.91147810220718
# 99 vertices

vn 0.19875602424145 0.97949850559235 -0.03284474462271
vn 0.19672387838364 0.97024410963058 -0.1411599367857
vn 0.35948026180267 0.91424804925919 -0.18688099086285
vn 0.36628955602646 0.92945849895477 -0.0440322458744
vn 0.08956433832645 0.99558293819427 0.02815682813525
vn 0.08959461003542 0.99597829580307 0
vn 0.19887985289097 0.9800238609314 0
vn 0.19875602424145 0.97949850559235 0.03284474462271
vn 0.08956433832645 0.99558293819427 -0.02815682813525
vn 0.08887661993504 0.98861181735992 -0.12143971771002
vn 0.08556359261274 0.95323091745377 -0.28987869620323
vn 0.2008500546217 0.91584122180939 -0.34769839048386
vn 0.08215967565775 0.9169756770134 -0.39039126038551
vn 0.20397615432739 0.85687482357025 -0.47345465421677
vn 0 0.92717355489731 0.37463203072548
vn 0 0.96070605516434 0.27756786346436
vn 0.08556359261274 0.95323091745377 0.28987869620323
vn 0.08215967565775 0.9169756770134 0.39039126038551
vn 0.35313194990158 0.81495356559753 -0.45950904488564
vn 0 0.99327439069748 0.1157840937376
vn 0.08887661993504 0.98861181735992 0.12143971771002
vn 0 0.99964046478271 0.02681291475892
vn 0 1 0
vn 0 0.99964046478271 -0.02681291475892
vn 0 0.99327439069748 -0.1157840937376
vn 0 0.96070605516434 -0.27756786346436
vn 0 0.92717355489731 -0.37463203072548
vn 0.21184714138508 0.84310728311539 0.49425792694092
vn 0.20516483485699 0.91066306829453 0.35860872268677
vn 0.35469806194305 0.80580526590347 0.47420161962509
vn 0.34363773465157 0.68377536535263 0.64371138811111
vn 0.34300824999809 0.70695447921753 -0.61851489543915
vn -0.08215967565775 0.9169756770134 0.39039126038551
vn -0.08556359261274 0.95323091745377 0.28987869620323
vn -0.08887661993504 0.98861181735992 0.12143971771002
vn -0.08956433832645 0.99558293819427 0.02815682813525
vn -0.08959461003542 0.99597829580307 0
vn -0.08956433832645 0.99558293819427 -0.02815682813525
vn -0.08887661993504 0.98861181735992 -0.12143971771002
vn -0.08556359261274 0.95323091745377 -0.28987869620323
vn 0.19672387838364 0.97024410963058 0.1411599367857
vn 0.35948026180267 0.91424804925919 0.18688099086285
vn -0.08215967565775 0.9169756770134 -0.39039126038551
vn -0.2160966694355 0.84579265117645 0.48778787255287
vn -0.20722010731697 0.91153717041016 0.35518980026245
vn -0.19672387838364 0.97024410963058 0.1411599367857
vn -0.19875602424145 0.97949850559235 0.03284474462271
vn -0.19887985289097 0.9800238609314 0
vn -0.19875602424145 0.97949850559235 -0.03284474462271
vn 0.36628955602646 0.92945849895477 0.0440322458744
vn -0.19672387838364 0.97024410963058 -0.1411599367857
vn -0.19975207746029 0.9149158000946 -0.3507536649704
vn -0.20162807404995 0.85420054197311 -0.47925731539726
vn -0.3504763841629 0.68804621696472 0.63542008399963
vn -0.35782468318939 0.80718374252319 0.46948474645615
vn -0.35948026180267 0.91424804925919 0.18688099086285
vn -0.36628955602646 0.92945849895477 0.0440322458744
vn -0.36672535538673 0.9303292632103 0
vn 0.36672535538673 0.9303292632103 0
vn -0.36628955602646 0.92945849895477 -0.0440322458744
vn -0.35948026180267 0.91424804925919 -0.18688099086285
vn -0.35088467597961 0.81345993280411 -0.46385654807091
vn -0.33794504404068 0.7026407122612 -0.62617021799088
vn -0.39226043224335 0.59582829475403 0.70079982280731
vn -0.42810326814651 0.73379760980606 0.52751177549362
vn -0.45710071921349 0.86263817548752 0.21659705042839
vn -0.46759784221649 0.88244521617889 0.05140670388937
vn -0.46822655200958 0.88360846042633 0
vn -0.46759784221649 0.88244521617889 -0.05140670388937
vn -0.45710071921349 0.86263817548752 -0.21659705042839
vn -0.42854464054108 0.73608547449112 -0.52395385503769
vn -0.39394906163216 0.60167384147644 -0.69483286142349
vn 0.42594754695892 0.73320478200912 0.5300749540329
vn 0.38753807544708 0.59376043081284 0.70516866445541
vn 0.45710071921349 0.86263817548752 0.21659705042839
vn 0.46759784221649 0.88244521617889 0.05140670388937
vn 0.46822655200958 0.88360846042633 0
vn 0.46759784221649 0.88244521617889 -0.05140670388937
vn 0.45710071921349 0.86263817548752 -0.21659705042839
vn 0.4307624399662 0.73667758703232 -0.52129632234573
vn 0.39879807829857 0.60368174314499 -0.69031035900116
# 81 normals

vt 0.65740340948105 0.80556774139404 0
vt 0.63866144418716 0.88352489471436 0
vt 0.72427809238434 0.88352489471436 0
vt 0.75007426738739 0.80556774139404 0
vt 0.54063135385513 0.19443225860596 0
vt 0.54063135385513 0.34721612930298 0
vt 0.65740340948105 0.34721612930298 0
vt 0.65740340948105 0.19443225860596 0
vt 0.54063135385513 0.5 0
vt 0.65740340948105 0.5 0
vt 0.54063135385513 0.65278387069702 0
vt 0.65740340948105 0.65278387069702 0
vt 0.54063135385513 0.80556774139404 0
vt 0.53077811002731 0.88352489471436 0
vt 0.50271838903427 0.94961380958557 0
vt 0.58528876304626 0.94961380958557 0
vt 0.46072414517403 0.99377298355103 0
vt 0.50541085004807 0.99377298355103 0
vt 0.41118851304054 0.00622701644897 0
vt 0.41118851304054 0.05038619041443 0
vt 0.50271838903427 0.05038619041443 0
vt 0.46072414517403 0.00622701644897 0
vt 0.65081691741943 0.94961380958557 0
vt 0.41118851304054 0.11647510528564 0
vt 0.53077811002731 0.11647510528564 0
vt 0.41118851304054 0.19443225860596 0
vt 0.41118851304054 0.34721612930298 0
vt 0.41118851304054 0.5 0
vt 0.41118851304054 0.65278387069702 0
vt 0.41118851304054 0.80556774139404 0
vt 0.41118851304054 0.88352489471436 0
vt 0.41118851304054 0.94961380958557 0
vt 0.41118851304054 0.99377298355103 0
vt 0.50541085004807 0.00622701644897 0
vt 0.58528876304626 0.05038619041443 0
vt 0.65081691741943 0.05038619041443 0
vt 0.54087448120117 0.00622701644897 0
vt 0.54087448120117 0.99377298355103 0
vt 0.36165288090706 0.00622701644897 0
vt 0.31965860724449 0.05038619041443 0
vt 0.29159891605377 0.11647510528564 0
vt 0.28174567222595 0.19443225860596 0
vt 0.28174567222595 0.34721612930298 0
vt 0.28174567222595 0.5 0
vt 0.28174567222595 0.65278387069702 0
vt 0.28174567222595 0.80556774139404 0
vt 0.29159891605377 0.88352489471436 0
vt 0.31965860724449 0.94961380958557 0
vt 0.63866144418716 0.11647510528564 0
vt 0.72427809238434 0.11647510528564 0
vt 0.36165288090706 0.99377298355103 0
vt 0.3169661462307 0.00622701644897 0
vt 0.23708827793598 0.05038619041443 0
vt 0.18371559679508 0.11647510528564 0
vt 0.16497360169888 0.19443225860596 0
vt 0.16497360169888 0.34721612930298 0
vt 0.16497360169888 0.5 0
vt 0.16497360169888 0.65278387069702 0
vt 0.16497360169888 0.80556774139404 0
vt 0.75007426738739 0.19443225860596 0
vt 0.18371559679508 0.88352489471436 0
vt 0.23708827793598 0.94961380958557 0
vt 0.3169661462307 0.99377298355103 0
vt 0.28150254487991 0.00622701644897 0
vt 0.17156010866165 0.05038619041443 0
vt 0.09809890389442 0.11647510528564 0
vt 0.07230276614428 0.19443225860596 0
vt 0.07230276614428 0.34721612930298 0
vt 0.07230276614428 0.5 0
vt 0.75007426738739 0.34721612930298 0
vt 0.07230276614428 0.65278387069702 0
vt 0.07230276614428 0.80556774139404 0
vt 0.09809890389442 0.88352489471436 0
vt 0.17156010866165 0.94961380958557 0
vt 0.28150254487991 0.99377298355103 0
vt 0.85795044898987 0.99377298355103 0
vt 0.98719555139542 0.98058867454529 0
vt 0.94512391090393 0.96974670886993 0
vt 0.83518147468567 0.98478358983994 0
vt 0.12948842346668 0.05038619041443 0
vt 0.04312960803509 0.11647510528564 0
vt 0.0128044243902 0.19443225860596 0
vt 0.75007426738739 0.5 0
vt 0.0128044243902 0.34721612930298 0
vt 0.0128044243902 0.5 0
vt 0.0128044243902 0.65278387069702 0
vt 0.0128044243902 0.80556774139404 0
vt 0.04312960803509 0.88352489471436 0
vt 0.12948842346668 0.94961380958557 0
vt 0.98719555139542 0.94645065069199 0
vt 0.85795044898987 0.93480354547501 0
vt 0.83518147468567 0.94385766983032 0
vt 0.94512391090393 0.95729261636734 0
vt 0.75007426738739 0.65278387069702 0
vt 0.69288861751556 0.05038619041443 0
vt 0.56364351511002 0.00622701644897 0
vt 0.77924740314484 0.11647510528564 0
vt 0.8095725774765 0.19443225860596 0
vt 0.8095725774765 0.34721612930298 0
vt 0.8095725774765 0.5 0
vt 0.8095725774765 0.65278387069702 0
vt 0.8095725774765 0.80556774139404 0
vt 0.77924740314484 0.88352489471436 0
vt 0.69288861751556 0.94961380958557 0
vt 0.87725311517715 0.92234951257706 0
vt 0.98719555139542 0.90891456604004 0
vt 0.96442651748657 0.89986044168472 0
vt 0.83518147468567 0.9115075469017 0
# 108 texture coordinates

o woodfloor
usemtl default
f 96/4/4 97/3/3 34/2/2 23/1/1
f 66/8/8 67/7/7 68/6/6 57/5/5
f 67/7/7 77/10/7 69/9/6 68/6/6
f 77/10/7 12/12/7 4/11/6 69/9/6
f 12/12/7 23/1/1 5/13/9 4/11/6
f 23/1/1 34/2/2 6/14/10 5/13/9
f 34/2/2 45/16/12 7/15/11 6/14/10
f 45/16/12 56/18/14 8/17/13 7/15/11
f 2/22/18 3/21/17 10/20/16 9/19/15
f 97/3/3 98/23/19 45/16/12 34/2/2
f 3/21/17 13/25/21 14/24/20 10/20/16
f 13/25/21 57/5/5 15/26/22 14/24/20
f 57/5/5 68/6/6 16/27/23 15/26/22
f 68/6/6 69/9/6 17/28/23 16/27/23
f 69/9/6 4/11/6 18/29/23 17/28/23
f 4/11/6 5/13/9 19/30/24 18/29/23
f 5/13/9 6/14/10 20/31/25 19/30/24
f 6/14/10 7/15/11 21/32/26 20/31/25
f 7/15/11 8/17/13 24/33/27 21/32/26
f 89/37/31 90/36/30 11/35/29 1/34/28
f 98/23/19 99/38/32 56/18/14 45/16/12
f 9/19/15 10/20/16 26/40/34 25/39/33
f 10/20/16 14/24/20 27/41/35 26/40/34
f 14/24/20 15/26/22 28/42/36 27/41/35
f 15/26/22 16/27/23 29/43/37 28/42/36
f 16/27/23 17/28/23 30/44/37 29/43/37
f 17/28/23 18/29/23 31/45/37 30/44/37
f 18/29/23 19/30/24 32/46/38 31/45/37
f 19/30/24 20/31/25 33/47/39 32/46/38
f 20/31/25 21/32/26 35/48/40 33/47/39
f 90/36/30 91/50/42 22/49/41 11/35/29
f 21/32/26 24/33/27 36/51/43 35/48/40
f 25/39/33 26/40/34 38/53/45 37/52/44
f 26/40/34 27/41/35 39/54/46 38/53/45
f 27/41/35 28/42/36 40/55/47 39/54/46
f 28/42/36 29/43/37 41/56/48 40/55/47
f 29/43/37 30/44/37 42/57/48 41/56/48
f 30/44/37 31/45/37 43/58/48 42/57/48
f 31/45/37 32/46/38 44/59/49 43/58/48
f 91/50/42 92/60/50 66/8/8 22/49/41
f 32/46/38 33/47/39 46/61/51 44/59/49
f 33/47/39 35/48/40 47/62/52 46/61/51
f 35/48/40 36/51/43 48/63/53 47/62/52
f 37/52/44 38/53/45 50/65/55 49/64/54
f 38/53/45 39/54/46 51/66/56 50/65/55
f 39/54/46 40/55/47 52/67/57 51/66/56
f 40/55/47 41/56/48 53/68/58 52/67/57
f 41/56/48 42/57/48 54/69/58 53/68/58
f 92/60/50 93/70/59 67/7/7 66/8/8
f 1/34/28 11/35/29 3/21/17 2/22/18
f 42/57/48 43/58/48 55/71/58 54/69/58
f 43/58/48 44/59/49 58/72/60 55/71/58
f 44/59/49 46/61/51 59/73/61 58/72/60
f 46/61/51 47/62/52 60/74/62 59/73/61
f 47/62/52 48/63/53 61/75/63 60/74/62
f 49/79/54 50/78/55 63/77/65 62/76/64
f 50/65/55 51/66/56 64/81/66 63/80/65
f 51/66/56 52/67/57 65/82/67 64/81/66
f 93/70/59 94/83/59 77/10/7 67/7/7
f 11/35/29 22/49/41 13/25/21 3/21/17
f 52/67/57 53/68/58 70/84/68 65/82/67
f 53/68/58 54/69/58 71/85/68 70/84/68
f 54/69/58 55/71/58 72/86/68 71/85/68
f 55/71/58 58/72/60 73/87/69 72/86/68
f 58/72/60 59/73/61 74/88/70 73/87/69
f 59/73/61 60/74/62 75/89/71 74/88/70
f 60/93/62 61/92/63 76/91/72 75/90/71
f 94/83/59 95/94/59 12/12/7 77/10/7
f 22/49/41 66/8/8 57/5/5 13/25/21
f 95/94/59 96/4/4 23/1/1 12/12/7
f 78/96/74 79/95/73 90/36/30 89/37/31
f 79/95/73 80/97/75 91/50/42 90/36/30
f 80/97/75 81/98/76 92/60/50 91/50/42
f 81/98/76 82/99/77 93/70/59 92/60/50
f 82/99/77 83/100/77 94/83/59 93/70/59
f 83/100/77 84/101/77 95/94/59 94/83/59
f 84/101/77 85/102/78 96/4/4 95/94/59
f 85/102/78 86/103/79 97/3/3 96/4/4
f 86/103/79 87/104/80 98/23/19 97/3/3
f 87/108/80 88/107/81 99/106/32 98/105/19

